<svg width="0" height="0" class="hidden">
    <symbol xmlns="http://www.w3.org/2000/svg" fill="#e3e3e3" viewBox="0 -960 960 960" id="logo">
        <path d="M480-240q0-80-56-136t-136-56q0 80 56 136t136 56Zm-.09-192Q500-432 514-445.94q14-13.93 14-34.06v-13l11 6q6.08 3 12.54 4.5Q558-481 564-481q19.71 0 33.35-13.65Q611-508.29 611-528q0-13-6-24t-18-18l-11-6 11-6q12-7 18-18t6-24q0-20.13-13.94-34.06Q583.13-672 563-672q-6 0-12.5 1t-11.5 5l-11 7v-13q0-20.13-13.91-34.06-13.91-13.94-34-13.94T446-706.06q-14 13.93-14 34.06v13l-11-7q-5-4-11.5-5t-12.5-1q-20.13 0-34.06 13.94Q349-644.13 349-624q0 13 6 24t18 18l11 6-11 6q-12 7-18 18t-6 24q0 20.13 13.94 34.06Q376.87-480 397-480q6 0 12.5-1t11.5-5l11-7v13q0 20.13 13.91 34.06 13.91 13.94 34 13.94Zm.18-96Q460-528 446-542q-14-14-14-34.38Q432-596 445.91-610q13.91-14 34-14T514-610.06q14 13.93 14 34.06 0 20-13.91 34t-34 14ZM480-240q80 0 136-56t56-136q-80 0-136 56t-56 136ZM168-96q-29.7 0-50.85-21.15Q96-138.3 96-168v-624q0-29.7 21.15-50.85Q138.3-864 168-864h624q29.7 0 50.85 21.15Q864-821.7 864-792v624q0 29.7-21.15 50.85Q821.7-96 792-96H168Zm0-72h624v-624H168v624Zm0 0v-624 624Z"></path>
    </symbol>
    <symbol xmlns="http://www.w3.org/2000/svg" fill="#e3e3e3" viewBox="0 -960 960 960" id="shop">
        <path d="M276.1-131.38q-22.1 0-36.95-15.06-14.84-15.06-14.84-37.16 0-22.09 15.06-36.94 15.05-14.84 37.15-14.84 22.1 0 36.94 15.05 14.85 15.06 14.85 37.16 0 22.09-15.06 36.94-15.06 14.85-37.15 14.85Zm407.38 0q-22.1 0-36.94-15.06-14.85-15.06-14.85-37.16 0-22.09 15.06-36.94 15.06-14.84 37.15-14.84 22.1 0 36.95 15.05 14.84 15.06 14.84 37.16 0 22.09-15.06 36.94-15.05 14.85-37.15 14.85ZM242.23-716 336-499.38h286.38q6.93 0 12.31-3.47 5.39-3.46 9.23-9.61l76.62-182q4.61-8.46.77-15-3.85-6.54-13.08-6.54h-466Zm-12.54-32h500.77q17.08 0 24.73 11.77 7.66 11.77 1.89 25.31L673.4-500.76q-6.32 14.76-19.21 24.07-12.88 9.31-29.5 9.31H317l-46.62 81.23q-6.15 9.23-.38 20 5.77 10.77 17.31 10.77h448.38v32H288.31q-33 0-47.73-26.16-14.73-26.15 1.65-52.61l58.15-99.23L166.31-812H88v-32h100.69l41 96ZM336-499.38h301-301Z"></path>
    </symbol>
</svg>